<svg xmlns="http://www.w3.org/2000/svg" viewBox="0 0 300 200">
  <rect width="300" height="66.67" fill="#0073CF"/>
  <rect y="66.67" width="300" height="66.67" fill="#fff"/>
  <rect y="133.33" width="300" height="66.67" fill="#0073CF"/>
  <g fill="#0073CF">
    <polygon points="150,80 153,89 163,89 155,95 158,104 150,98 142,104 145,95 137,89 147,89"/>
    <polygon points="110,80 113,89 123,89 115,95 118,104 110,98 102,104 105,95 97,89 107,89"/>
    <polygon points="190,80 193,89 203,89 195,95 198,104 190,98 182,104 185,95 177,89 187,89"/>
    <polygon points="120,105 123,114 133,114 125,120 128,129 120,123 112,129 115,120 107,114 117,114"/>
    <polygon points="180,105 183,114 193,114 185,120 188,129 180,123 172,129 175,120 167,114 177,114"/>
  </g>
</svg>