<svg xmlns="http://www.w3.org/2000/svg" viewBox="0 0 300 200">
  <rect width="300" height="200" fill="#fff"/>
  <circle cx="150" cy="100" r="40" fill="#CD2E3A"/>
  <path d="M150 60 A40 40 0 0 1 150 100 A20 20 0 0 1 150 140 A40 40 0 0 1 150 60" fill="#CD2E3A"/>
  <path d="M150 60 A40 40 0 0 0 150 100 A20 20 0 0 0 150 140 A40 40 0 0 0 150 60" fill="#0047A0"/>
  <g stroke="#000" stroke-width="4">
    <line x1="60" y1="40" x2="95" y2="65"/><line x1="65" y1="48" x2="100" y2="73"/>
    <line x1="200" y1="127" x2="235" y2="152"/><line x1="205" y1="135" x2="240" y2="160"/>
    <line x1="205" y1="40" x2="240" y2="65"/><line x1="200" y1="48" x2="235" y2="73"/>
    <line x1="60" y1="127" x2="95" y2="152"/><line x1="65" y1="135" x2="100" y2="160"/>
  </g>
</svg>