<svg xmlns="http://www.w3.org/2000/svg" viewBox="0 0 300 200">
  <rect width="300" height="200" fill="#00247D"/>
  <rect width="150" height="100" fill="#00247D"/>
  <rect x="60" width="30" height="100" fill="#fff"/>
  <rect y="35" width="150" height="30" fill="#fff"/>
  <rect x="67.5" width="15" height="100" fill="#CC0000"/>
  <rect y="42.5" width="150" height="15" fill="#CC0000"/>
  <line x1="0" y1="0" x2="150" y2="100" stroke="#fff" stroke-width="15"/>
  <line x1="150" y1="0" x2="0" y2="100" stroke="#fff" stroke-width="15"/>
  <line x1="0" y1="0" x2="150" y2="100" stroke="#CC0000" stroke-width="5"/>
  <line x1="150" y1="0" x2="0" y2="100" stroke="#CC0000" stroke-width="5"/>
  <polygon points="230,50 233,59 243,59 235,65 238,74 230,68 222,74 225,65 217,59 227,59" fill="#CC0000" stroke="#fff" stroke-width="1"/>
  <polygon points="260,90 263,99 273,99 265,105 268,114 260,108 252,114 255,105 247,99 257,99" fill="#CC0000" stroke="#fff" stroke-width="1"/>
  <polygon points="250,140 253,149 263,149 255,155 258,164 250,158 242,164 245,155 237,149 247,149" fill="#CC0000" stroke="#fff" stroke-width="1"/>
  <polygon points="220,120 223,129 233,129 225,135 228,144 220,138 212,144 215,135 207,129 217,129" fill="#CC0000" stroke="#fff" stroke-width="1"/>
</svg>