<svg xmlns="http://www.w3.org/2000/svg" viewBox="0 0 300 200">
  <rect width="300" height="200" fill="#B22234"/>
  <rect y="15.38" width="300" height="15.38" fill="#fff"/>
  <rect y="46.15" width="300" height="15.38" fill="#fff"/>
  <rect y="76.92" width="300" height="15.38" fill="#fff"/>
  <rect y="107.69" width="300" height="15.38" fill="#fff"/>
  <rect y="138.46" width="300" height="15.38" fill="#fff"/>
  <rect y="169.23" width="300" height="15.38" fill="#fff"/>
  <rect width="120" height="107.69" fill="#3C3B6E"/>
  <g fill="#fff" font-size="8">
    <circle cx="10" cy="8" r="3"/><circle cx="30" cy="8" r="3"/><circle cx="50" cy="8" r="3"/><circle cx="70" cy="8" r="3"/><circle cx="90" cy="8" r="3"/><circle cx="110" cy="8" r="3"/>
    <circle cx="20" cy="20" r="3"/><circle cx="40" cy="20" r="3"/><circle cx="60" cy="20" r="3"/><circle cx="80" cy="20" r="3"/><circle cx="100" cy="20" r="3"/>
    <circle cx="10" cy="32" r="3"/><circle cx="30" cy="32" r="3"/><circle cx="50" cy="32" r="3"/><circle cx="70" cy="32" r="3"/><circle cx="90" cy="32" r="3"/><circle cx="110" cy="32" r="3"/>
    <circle cx="20" cy="44" r="3"/><circle cx="40" cy="44" r="3"/><circle cx="60" cy="44" r="3"/><circle cx="80" cy="44" r="3"/><circle cx="100" cy="44" r="3"/>
    <circle cx="10" cy="56" r="3"/><circle cx="30" cy="56" r="3"/><circle cx="50" cy="56" r="3"/><circle cx="70" cy="56" r="3"/><circle cx="90" cy="56" r="3"/><circle cx="110" cy="56" r="3"/>
    <circle cx="20" cy="68" r="3"/><circle cx="40" cy="68" r="3"/><circle cx="60" cy="68" r="3"/><circle cx="80" cy="68" r="3"/><circle cx="100" cy="68" r="3"/>
    <circle cx="10" cy="80" r="3"/><circle cx="30" cy="80" r="3"/><circle cx="50" cy="80" r="3"/><circle cx="70" cy="80" r="3"/><circle cx="90" cy="80" r="3"/><circle cx="110" cy="80" r="3"/>
    <circle cx="20" cy="92" r="3"/><circle cx="40" cy="92" r="3"/><circle cx="60" cy="92" r="3"/><circle cx="80" cy="92" r="3"/><circle cx="100" cy="92" r="3"/>
    <circle cx="10" cy="104" r="3"/><circle cx="30" cy="104" r="3"/><circle cx="50" cy="104" r="3"/><circle cx="70" cy="104" r="3"/><circle cx="90" cy="104" r="3"/><circle cx="110" cy="104" r="3"/>
  </g>
</svg>